<svg width="25" height="25" viewBox="0 0 25 25" fill="none" xmlns="http://www.w3.org/2000/svg">
<path fill-rule="evenodd" clip-rule="evenodd" d="M17.7778 10C17.7778 14.2956 14.2955 17.7778 10 17.7778C5.70445 17.7778 2.22222 14.2956 2.22222 10C2.22222 5.70445 5.70445 2.22222 10 2.22222C14.2955 2.22222 17.7778 5.70445 17.7778 10ZM16.2419 17.8132C14.5311 19.1817 12.3611 20 10 20C4.47715 20 0 15.5229 0 10C0 4.47715 4.47715 0 10 0C15.5228 0 20 4.47715 20 10C20 12.3611 19.1817 14.5311 17.8132 16.2419L24.6746 23.1032C25.1085 23.5371 25.1085 24.2406 24.6746 24.6746C24.2406 25.1085 23.5371 25.1085 23.1032 24.6746L16.2419 17.8132Z" fill="black"/>
</svg>
